<?xml version="1.0" encoding="UTF-8"?><svg xmlns="http://www.w3.org/2000/svg" xmlns:xlink="http://www.w3.org/1999/xlink" fill-opacity="1" color-rendering="auto" color-interpolation="auto" text-rendering="auto" stroke="black" stroke-linecap="square" width="850" stroke-miterlimit="10" shape-rendering="auto" stroke-opacity="1" fill="black" stroke-dasharray="none" font-weight="normal" stroke-width="1" height="289" font-family="'Dialog'" font-style="normal" stroke-linejoin="miter" font-size="12px" stroke-dashoffset="0" image-rendering="auto">
  <!--Generated by ySVG 2.5-->
  <defs id="genericDefs"/>
  <g>
    <defs id="defs1">
      <clipPath clipPathUnits="userSpaceOnUse" id="clipPath1">
        <path d="M0 0 L850 0 L850 289 L0 289 L0 0 Z"/>
      </clipPath>
      <clipPath clipPathUnits="userSpaceOnUse" id="clipPath2">
        <path d="M-225 -103 L625 -103 L625 186 L-225 186 L-225 -103 Z"/>
      </clipPath>
    </defs>
    <g fill="white" text-rendering="geometricPrecision" shape-rendering="geometricPrecision" transform="translate(225,103)" stroke="white">
      <rect x="-225" width="850" height="289" y="-103" clip-path="url(#clipPath2)" stroke="none"/>
    </g>
    <g fill="rgb(255,204,0)" text-rendering="geometricPrecision" shape-rendering="geometricPrecision" transform="matrix(1,0,0,1,225,103)" stroke="rgb(255,204,0)">
      <rect x="-210" width="110" height="63" y="-87.5" clip-path="url(#clipPath2)" stroke="none"/>
    </g>
    <g text-rendering="geometricPrecision" stroke-miterlimit="1.45" shape-rendering="geometricPrecision" transform="matrix(1,0,0,1,225,103)" stroke-linecap="butt">
      <rect fill="none" x="-210" width="110" height="63" y="-87.5" clip-path="url(#clipPath2)"/>
      <text x="-188.5215" font-size="18px" y="-48.9292" clip-path="url(#clipPath2)" font-family="sans-serif" stroke="none" xml:space="preserve">Request</text>
    </g>
    <g fill="rgb(255,204,0)" text-rendering="geometricPrecision" shape-rendering="geometricPrecision" transform="matrix(1,0,0,1,225,103)" stroke="rgb(255,204,0)">
      <rect x="-210" width="110" height="63" y="107.5" clip-path="url(#clipPath2)" stroke="none"/>
    </g>
    <g text-rendering="geometricPrecision" stroke-miterlimit="1.45" shape-rendering="geometricPrecision" transform="matrix(1,0,0,1,225,103)" stroke-linecap="butt">
      <rect fill="none" x="-210" width="110" height="63" y="107.5" clip-path="url(#clipPath2)"/>
      <text x="-195.5264" font-size="18px" y="146.0708" clip-path="url(#clipPath2)" font-family="sans-serif" stroke="none" xml:space="preserve">Response</text>
    </g>
    <g fill="rgb(204,255,255)" text-rendering="geometricPrecision" shape-rendering="geometricPrecision" transform="matrix(1,0,0,1,225,103)" stroke="rgb(204,255,255)">
      <rect x="-42.5" width="179" height="258" y="-87.5" clip-path="url(#clipPath2)" stroke="none"/>
    </g>
    <g text-rendering="geometricPrecision" stroke-miterlimit="1.45" shape-rendering="geometricPrecision" transform="matrix(1,0,0,1,225,103)" stroke-linecap="butt">
      <rect fill="none" x="-42.5" width="179" height="258" y="-87.5" clip-path="url(#clipPath2)"/>
      <text x="-26.0327" font-size="18px" y="-61.688" clip-path="url(#clipPath2)" font-family="sans-serif" stroke="none" xml:space="preserve">Middleware 1</text>
      <text x="-26.0327" font-size="18px" y="-39.6362" clip-path="url(#clipPath2)" font-family="sans-serif" stroke="none" xml:space="preserve"> </text>
      <text x="-26.0327" font-size="18px" y="-17.5845" clip-path="url(#clipPath2)" font-family="sans-serif" stroke="none" xml:space="preserve">// work before</text>
      <text x="-26.0327" font-size="18px" y="4.4673" clip-path="url(#clipPath2)" font-family="sans-serif" stroke="none" xml:space="preserve">// next middleware</text>
      <text x="-26.0327" font-size="18px" y="26.519" clip-path="url(#clipPath2)" font-family="sans-serif" stroke="none" xml:space="preserve"> </text>
      <text x="-26.0327" font-size="18px" y="48.5708" clip-path="url(#clipPath2)" font-family="sans-serif" stroke="none" xml:space="preserve">$next-&gt;handle()</text>
      <text x="-26.0327" font-size="18px" y="70.6226" clip-path="url(#clipPath2)" font-family="sans-serif" stroke="none" xml:space="preserve"> </text>
      <text x="-26.0327" font-size="18px" y="92.6743" clip-path="url(#clipPath2)" font-family="sans-serif" stroke="none" xml:space="preserve">// work after</text>
      <text x="-26.0327" font-size="18px" y="114.7261" clip-path="url(#clipPath2)" font-family="sans-serif" stroke="none" xml:space="preserve">// next middleware</text>
      <text x="-26.0327" font-size="18px" y="136.7778" clip-path="url(#clipPath2)" font-family="sans-serif" stroke="none" xml:space="preserve"> </text>
      <text x="-26.0327" font-size="18px" y="158.8296" clip-path="url(#clipPath2)" font-family="sans-serif" stroke="none" xml:space="preserve">return $response;</text>
    </g>
    <g fill="rgb(255,153,204)" text-rendering="geometricPrecision" shape-rendering="geometricPrecision" transform="matrix(1,0,0,1,225,103)" stroke="rgb(255,153,204)">
      <rect x="194" width="179" height="258" y="-87.5" clip-path="url(#clipPath2)" stroke="none"/>
    </g>
    <g text-rendering="geometricPrecision" stroke-miterlimit="1.45" shape-rendering="geometricPrecision" transform="matrix(1,0,0,1,225,103)" stroke-linecap="butt">
      <rect fill="none" x="194" width="179" height="258" y="-87.5" clip-path="url(#clipPath2)"/>
      <text x="210.4673" font-size="18px" y="-61.688" clip-path="url(#clipPath2)" font-family="sans-serif" stroke="none" xml:space="preserve">Middleware 2</text>
      <text x="210.4673" font-size="18px" y="-39.6362" clip-path="url(#clipPath2)" font-family="sans-serif" stroke="none" xml:space="preserve"> </text>
      <text x="210.4673" font-size="18px" y="-17.5845" clip-path="url(#clipPath2)" font-family="sans-serif" stroke="none" xml:space="preserve">// work before</text>
      <text x="210.4673" font-size="18px" y="4.4673" clip-path="url(#clipPath2)" font-family="sans-serif" stroke="none" xml:space="preserve">// next middleware</text>
      <text x="210.4673" font-size="18px" y="26.519" clip-path="url(#clipPath2)" font-family="sans-serif" stroke="none" xml:space="preserve"> </text>
      <text x="210.4673" font-size="18px" y="48.5708" clip-path="url(#clipPath2)" font-family="sans-serif" stroke="none" xml:space="preserve">$next-&gt;handle()</text>
      <text x="210.4673" font-size="18px" y="70.6226" clip-path="url(#clipPath2)" font-family="sans-serif" stroke="none" xml:space="preserve"> </text>
      <text x="210.4673" font-size="18px" y="92.6743" clip-path="url(#clipPath2)" font-family="sans-serif" stroke="none" xml:space="preserve">// work after</text>
      <text x="210.4673" font-size="18px" y="114.7261" clip-path="url(#clipPath2)" font-family="sans-serif" stroke="none" xml:space="preserve">// next middleware</text>
      <text x="210.4673" font-size="18px" y="136.7778" clip-path="url(#clipPath2)" font-family="sans-serif" stroke="none" xml:space="preserve"> </text>
      <text x="210.4673" font-size="18px" y="158.8296" clip-path="url(#clipPath2)" font-family="sans-serif" stroke="none" xml:space="preserve">return $response;</text>
    </g>
    <g fill="rgb(153,204,0)" text-rendering="geometricPrecision" shape-rendering="geometricPrecision" transform="matrix(1,0,0,1,225,103)" stroke="rgb(153,204,0)">
      <rect x="430.5" width="179" height="258" y="-87.5" clip-path="url(#clipPath2)" stroke="none"/>
    </g>
    <g text-rendering="geometricPrecision" stroke-miterlimit="1.45" shape-rendering="geometricPrecision" transform="matrix(1,0,0,1,225,103)" stroke-linecap="butt">
      <rect fill="none" x="430.5" width="179" height="258" y="-87.5" clip-path="url(#clipPath2)"/>
      <text x="449.459" font-size="18px" y="-61.688" clip-path="url(#clipPath2)" font-family="sans-serif" stroke="none" xml:space="preserve">Action</text>
      <text x="449.459" font-size="18px" y="-39.6362" clip-path="url(#clipPath2)" font-family="sans-serif" stroke="none" xml:space="preserve"> </text>
      <text x="449.459" font-size="18px" y="-17.5845" clip-path="url(#clipPath2)" font-family="sans-serif" stroke="none" xml:space="preserve"> </text>
      <text x="449.459" font-size="18px" y="4.4673" clip-path="url(#clipPath2)" font-family="sans-serif" stroke="none" xml:space="preserve"> </text>
      <text x="449.459" font-size="18px" y="26.519" clip-path="url(#clipPath2)" font-family="sans-serif" stroke="none" xml:space="preserve"> </text>
      <text x="449.459" font-size="18px" y="48.5708" clip-path="url(#clipPath2)" font-family="sans-serif" stroke="none" xml:space="preserve">// some work</text>
      <text x="449.459" font-size="18px" y="70.6226" clip-path="url(#clipPath2)" font-family="sans-serif" stroke="none" xml:space="preserve"> </text>
      <text x="449.459" font-size="18px" y="92.6743" clip-path="url(#clipPath2)" font-family="sans-serif" stroke="none" xml:space="preserve"> </text>
      <text x="449.459" font-size="18px" y="114.7261" clip-path="url(#clipPath2)" font-family="sans-serif" stroke="none" xml:space="preserve"> </text>
      <text x="449.459" font-size="18px" y="136.7778" clip-path="url(#clipPath2)" font-family="sans-serif" stroke="none" xml:space="preserve"> </text>
      <text x="449.459" font-size="18px" y="158.8296" clip-path="url(#clipPath2)" font-family="sans-serif" stroke="none" xml:space="preserve">return $response;</text>
      <path fill="none" d="M-100 -56 L-50.5391 -56" clip-path="url(#clipPath2)"/>
      <path d="M-42.5391 -56 L-54.5391 -61 L-51.5391 -56 L-54.5391 -51 Z" clip-path="url(#clipPath2)" stroke="none"/>
      <path fill="none" d="M-42.5391 139 L-92 139" clip-path="url(#clipPath2)"/>
      <path d="M-100 139 L-88 144 L-91 139 L-88 134 Z" clip-path="url(#clipPath2)" stroke="none"/>
      <path fill="none" d="M136.5 41.5 L185.9719 41.5" clip-path="url(#clipPath2)"/>
      <path d="M193.9719 41.5 L181.9719 36.5 L184.9719 41.5 L181.9719 46.5 Z" clip-path="url(#clipPath2)" stroke="none"/>
      <path fill="none" d="M193.9798 136.881 L144.5349 136.881" clip-path="url(#clipPath2)"/>
      <path d="M136.5349 136.881 L148.5349 141.881 L145.5349 136.881 L148.5349 131.881 Z" clip-path="url(#clipPath2)" stroke="none"/>
      <path fill="none" d="M373 41.5 L422.4719 41.5" clip-path="url(#clipPath2)"/>
      <path d="M430.4719 41.5 L418.4719 36.5 L421.4719 41.5 L418.4719 46.5 Z" clip-path="url(#clipPath2)" stroke="none"/>
      <path fill="none" d="M430.5099 135.3127 L381.0234 135.3127" clip-path="url(#clipPath2)"/>
      <path d="M373.0234 135.3127 L385.0234 140.3127 L382.0234 135.3127 L385.0234 130.3127 Z" clip-path="url(#clipPath2)" stroke="none"/>
    </g>
  </g>
</svg>
