<?xml version="1.0" encoding="UTF-8"?><svg xmlns="http://www.w3.org/2000/svg" xmlns:xlink="http://www.w3.org/1999/xlink" fill-opacity="1" color-rendering="auto" color-interpolation="auto" text-rendering="auto" stroke="black" stroke-linecap="square" width="588" stroke-miterlimit="10" shape-rendering="auto" stroke-opacity="1" fill="black" stroke-dasharray="none" font-weight="normal" stroke-width="1" height="295" font-family="'Dialog'" font-style="normal" stroke-linejoin="miter" font-size="12px" stroke-dashoffset="0" image-rendering="auto">
  <!--Generated by ySVG 2.5-->
  <defs id="genericDefs"/>
  <g>
    <defs id="defs1">
      <clipPath clipPathUnits="userSpaceOnUse" id="clipPath1">
        <path d="M0 0 L588 0 L588 295 L0 295 L0 0 Z"/>
      </clipPath>
      <clipPath clipPathUnits="userSpaceOnUse" id="clipPath2">
        <path d="M101 81 L689 81 L689 376 L101 376 L101 81 Z"/>
      </clipPath>
    </defs>
    <g fill="white" text-rendering="geometricPrecision" shape-rendering="geometricPrecision" transform="translate(-101,-81)" stroke="white">
      <rect x="101" width="588" height="295" y="81" clip-path="url(#clipPath2)" stroke="none"/>
    </g>
    <g fill="rgb(204,255,255)" text-rendering="geometricPrecision" shape-rendering="geometricPrecision" transform="matrix(1,0,0,1,-101,-81)" stroke="rgb(204,255,255)">
      <circle r="132" clip-path="url(#clipPath2)" cx="405.5" cy="228.5" stroke="none"/>
    </g>
    <g text-rendering="geometricPrecision" stroke-miterlimit="1.45" shape-rendering="geometricPrecision" transform="matrix(1,0,0,1,-101,-81)" stroke-linecap="butt">
      <circle fill="none" r="132" clip-path="url(#clipPath2)" cx="405.5" cy="228.5"/>
      <text x="351.9746" font-size="18px" y="131.5967" clip-path="url(#clipPath2)" font-family="sans-serif" stroke="none" xml:space="preserve">Middleware 1</text>
    </g>
    <g fill="rgb(255,153,204)" text-rendering="geometricPrecision" shape-rendering="geometricPrecision" transform="matrix(1,0,0,1,-101,-81)" stroke="rgb(255,153,204)">
      <circle r="88.5" clip-path="url(#clipPath2)" cx="405.5" cy="228.5" stroke="none"/>
    </g>
    <g text-rendering="geometricPrecision" stroke-miterlimit="1.45" shape-rendering="geometricPrecision" transform="matrix(1,0,0,1,-101,-81)" stroke-linecap="butt">
      <circle fill="none" r="88.5" clip-path="url(#clipPath2)" cx="405.5" cy="228.5"/>
      <text x="351.9746" font-size="18px" y="175.0967" clip-path="url(#clipPath2)" font-family="sans-serif" stroke="none" xml:space="preserve">Middleware 2</text>
    </g>
    <g fill="rgb(153,204,0)" text-rendering="geometricPrecision" shape-rendering="geometricPrecision" transform="matrix(1,0,0,1,-101,-81)" stroke="rgb(153,204,0)">
      <circle r="42.5" clip-path="url(#clipPath2)" cx="405.5" cy="228.5" stroke="none"/>
    </g>
    <g text-rendering="geometricPrecision" stroke-miterlimit="1.45" shape-rendering="geometricPrecision" transform="matrix(1,0,0,1,-101,-81)" stroke-linecap="butt">
      <circle fill="none" r="42.5" clip-path="url(#clipPath2)" cx="405.5" cy="228.5"/>
      <text x="380.4863" font-size="18px" y="235.5708" clip-path="url(#clipPath2)" font-family="sans-serif" stroke="none" xml:space="preserve">Action</text>
    </g>
    <g fill="rgb(255,204,0)" text-rendering="geometricPrecision" shape-rendering="geometricPrecision" transform="matrix(1,0,0,1,-101,-81)" stroke="rgb(255,204,0)">
      <rect x="116" width="93" height="62" y="197.5" clip-path="url(#clipPath2)" stroke="none"/>
    </g>
    <g text-rendering="geometricPrecision" stroke-miterlimit="1.45" shape-rendering="geometricPrecision" transform="matrix(1,0,0,1,-101,-81)" stroke-linecap="butt">
      <rect fill="none" x="116" width="93" height="62" y="197.5" clip-path="url(#clipPath2)"/>
      <text x="128.9785" font-size="18px" y="235.5708" clip-path="url(#clipPath2)" font-family="sans-serif" stroke="none" xml:space="preserve">Request</text>
    </g>
    <g fill="rgb(255,204,0)" text-rendering="geometricPrecision" shape-rendering="geometricPrecision" transform="matrix(1,0,0,1,-101,-81)" stroke="rgb(255,204,0)">
      <rect x="581" width="93" height="62" y="191.5" clip-path="url(#clipPath2)" stroke="none"/>
    </g>
    <g text-rendering="geometricPrecision" stroke-miterlimit="1.45" shape-rendering="geometricPrecision" transform="matrix(1,0,0,1,-101,-81)" stroke-linecap="butt">
      <rect fill="none" x="581" width="93" height="62" y="191.5" clip-path="url(#clipPath2)"/>
      <text x="586.9736" font-size="18px" y="229.5708" clip-path="url(#clipPath2)" font-family="sans-serif" stroke="none" xml:space="preserve">Response</text>
      <path fill="none" d="M209 228.5 L265.5 228.5" clip-path="url(#clipPath2)"/>
      <path d="M273.5 228.5 L261.5 223.5 L264.5 228.5 L261.5 233.5 Z" clip-path="url(#clipPath2)" stroke="none"/>
      <path fill="none" d="M537.4518 224.9337 L573.0029 223.9729" clip-path="url(#clipPath2)"/>
      <path d="M581 223.7568 L568.8693 219.0828 L572.0033 223.9999 L569.1395 229.0791 Z" clip-path="url(#clipPath2)" stroke="none"/>
    </g>
  </g>
</svg>
