<?xml version="1.0" encoding="UTF-8"?><svg xmlns="http://www.w3.org/2000/svg" xmlns:xlink="http://www.w3.org/1999/xlink" fill-opacity="1" color-rendering="auto" color-interpolation="auto" text-rendering="auto" stroke="black" stroke-linecap="square" width="767" stroke-miterlimit="10" shape-rendering="auto" stroke-opacity="1" fill="black" stroke-dasharray="none" font-weight="normal" stroke-width="1" height="395" font-family="'Dialog'" font-style="normal" stroke-linejoin="miter" font-size="12px" stroke-dashoffset="0" image-rendering="auto">
  <!--Generated by ySVG 2.5-->
  <defs id="genericDefs"/>
  <g>
    <defs id="defs1">
      <clipPath clipPathUnits="userSpaceOnUse" id="clipPath1">
        <path d="M0 0 L767 0 L767 395 L0 395 L0 0 Z"/>
      </clipPath>
      <clipPath clipPathUnits="userSpaceOnUse" id="clipPath2">
        <path d="M9 31 L776 31 L776 426 L9 426 L9 31 Z"/>
      </clipPath>
    </defs>
    <g fill="rgb(255,204,0)" text-rendering="geometricPrecision" shape-rendering="geometricPrecision" transform="matrix(1,0,0,1,-9,-31)" stroke="rgb(255,204,0)">
      <circle r="182.5" clip-path="url(#clipPath2)" cx="405.5" cy="228.5" stroke="none"/>
    </g>
    <g text-rendering="geometricPrecision" stroke-miterlimit="1.45" shape-rendering="geometricPrecision" transform="matrix(1,0,0,1,-9,-31)" stroke-linecap="butt">
      <circle fill="none" r="182.5" clip-path="url(#clipPath2)" cx="405.5" cy="228.5"/>
    </g>
    <g fill="rgb(204,255,255)" text-rendering="geometricPrecision" shape-rendering="geometricPrecision" transform="matrix(1,0,0,1,-9,-31)" stroke="rgb(204,255,255)">
      <circle r="132" clip-path="url(#clipPath2)" cx="405.5" cy="228.5" stroke="none"/>
    </g>
    <g text-rendering="geometricPrecision" stroke-miterlimit="1.45" shape-rendering="geometricPrecision" transform="matrix(1,0,0,1,-9,-31)" stroke-linecap="butt">
      <circle fill="none" r="132" clip-path="url(#clipPath2)" cx="405.5" cy="228.5"/>
    </g>
    <g fill="rgb(204,153,255)" text-rendering="geometricPrecision" shape-rendering="geometricPrecision" transform="matrix(1,0,0,1,-9,-31)" stroke="rgb(204,153,255)">
      <circle r="88.5" clip-path="url(#clipPath2)" cx="405.5" cy="228.5" stroke="none"/>
    </g>
    <g text-rendering="geometricPrecision" stroke-miterlimit="1.45" shape-rendering="geometricPrecision" transform="matrix(1,0,0,1,-9,-31)" stroke-linecap="butt">
      <circle fill="none" r="88.5" clip-path="url(#clipPath2)" cx="405.5" cy="228.5"/>
    </g>
    <g fill="rgb(153,204,0)" text-rendering="geometricPrecision" shape-rendering="geometricPrecision" transform="matrix(1,0,0,1,-9,-31)" stroke="rgb(153,204,0)">
      <circle r="42.5" clip-path="url(#clipPath2)" cx="405.5" cy="228.5" stroke="none"/>
    </g>
    <g text-rendering="geometricPrecision" stroke-miterlimit="1.45" shape-rendering="geometricPrecision" transform="matrix(1,0,0,1,-9,-31)" stroke-linecap="butt">
      <circle fill="none" r="42.5" clip-path="url(#clipPath2)" cx="405.5" cy="228.5"/>
      <text x="388.8242" xml:space="preserve" y="233.2139" clip-path="url(#clipPath2)" font-family="sans-serif" stroke="none">Action</text>
      <text x="33.2539" font-size="20px" y="236.3564" clip-path="url(#clipPath2)" font-family="sans-serif" stroke="none" xml:space="preserve">Request</text>
      <text x="668.4707" font-size="20px" y="230.3564" clip-path="url(#clipPath2)" font-family="sans-serif" stroke="none" xml:space="preserve">Response</text>
    </g>
    <g text-rendering="geometricPrecision" stroke-miterlimit="1.45" shape-rendering="geometricPrecision" transform="matrix(1,0,0,1,-9,-31)" stroke-linecap="butt">
      <path fill="none" d="M208 222.25 L210.85 227 L117 227 L117 230 L210.85 230 L208 234.75 L223 228.5 L208 222.25 Z" clip-path="url(#clipPath2)"/>
    </g>
    <g text-rendering="geometricPrecision" stroke-miterlimit="1.45" shape-rendering="geometricPrecision" transform="matrix(1,0,0,1,-9,-31)" stroke-linecap="butt">
      <path fill="none" d="M651.8811 217.4492 L654.8231 222.1428 L654.8231 222.1428 L587.9362 223.4458 L587.9946 226.4452 L654.8815 225.1422 L654.8815 225.1422 L652.1246 229.9468 L667 223.4058 L651.8811 217.4492 Z" clip-path="url(#clipPath2)"/>
    </g>
  </g>
</svg>
