<?xml version="1.0" encoding="UTF-8"?><svg xmlns="http://www.w3.org/2000/svg" xmlns:xlink="http://www.w3.org/1999/xlink" fill-opacity="1" color-rendering="auto" color-interpolation="auto" text-rendering="auto" stroke="black" stroke-linecap="square" width="767" stroke-miterlimit="10" shape-rendering="auto" stroke-opacity="1" fill="black" stroke-dasharray="none" font-weight="normal" stroke-width="1" height="395" font-family="'Dialog'" font-style="normal" stroke-linejoin="miter" font-size="12px" stroke-dashoffset="0" image-rendering="auto">
  <!--Generated by ySVG 2.5-->
  <defs id="genericDefs"/>
  <g>
    <defs id="defs1">
      <clipPath clipPathUnits="userSpaceOnUse" id="clipPath1">
        <path d="M0 0 L767 0 L767 395 L0 395 L0 0 Z"/>
      </clipPath>
      <clipPath clipPathUnits="userSpaceOnUse" id="clipPath2">
        <path d="M629 264 L1396 264 L1396 659 L629 659 L629 264 Z"/>
      </clipPath>
    </defs>
    <g fill="rgb(255,204,0)" text-rendering="geometricPrecision" shape-rendering="geometricPrecision" transform="matrix(1,0,0,1,-629,-264)" stroke="rgb(255,204,0)">
      <circle r="182.5" clip-path="url(#clipPath2)" cx="1025.5" cy="461.5" stroke="none"/>
    </g>
    <g text-rendering="geometricPrecision" stroke-miterlimit="1.45" shape-rendering="geometricPrecision" transform="matrix(1,0,0,1,-629,-264)" stroke-linecap="butt">
      <circle fill="none" r="182.5" clip-path="url(#clipPath2)" cx="1025.5" cy="461.5"/>
    </g>
    <g fill="rgb(204,255,255)" text-rendering="geometricPrecision" shape-rendering="geometricPrecision" transform="matrix(1,0,0,1,-629,-264)" stroke="rgb(204,255,255)">
      <circle r="132" clip-path="url(#clipPath2)" cx="1025.5" cy="461.5" stroke="none"/>
    </g>
    <g text-rendering="geometricPrecision" stroke-miterlimit="1.45" shape-rendering="geometricPrecision" transform="matrix(1,0,0,1,-629,-264)" stroke-linecap="butt">
      <circle fill="none" r="132" clip-path="url(#clipPath2)" cx="1025.5" cy="461.5"/>
    </g>
    <g fill="rgb(204,153,255)" text-rendering="geometricPrecision" shape-rendering="geometricPrecision" transform="matrix(1,0,0,1,-629,-264)" stroke="rgb(204,153,255)">
      <circle r="88.5" clip-path="url(#clipPath2)" cx="1025.5" cy="461.5" stroke="none"/>
    </g>
    <g text-rendering="geometricPrecision" stroke-miterlimit="1.45" shape-rendering="geometricPrecision" transform="matrix(1,0,0,1,-629,-264)" stroke-linecap="butt">
      <circle fill="none" r="88.5" clip-path="url(#clipPath2)" cx="1025.5" cy="461.5"/>
    </g>
    <g fill="rgb(153,204,0)" text-rendering="geometricPrecision" shape-rendering="geometricPrecision" transform="matrix(1,0,0,1,-629,-264)" stroke="rgb(153,204,0)">
      <circle r="42.5" clip-path="url(#clipPath2)" cx="1025.5" cy="461.5" stroke="none"/>
    </g>
    <g text-rendering="geometricPrecision" stroke-miterlimit="1.45" shape-rendering="geometricPrecision" transform="matrix(1,0,0,1,-629,-264)" stroke-linecap="butt">
      <circle fill="none" r="42.5" clip-path="url(#clipPath2)" cx="1025.5" cy="461.5"/>
      <text x="1008.8242" xml:space="preserve" y="466.2139" clip-path="url(#clipPath2)" font-family="sans-serif" stroke="none">Action</text>
      <text x="653.2539" font-size="20px" y="469.3564" clip-path="url(#clipPath2)" font-family="sans-serif" stroke="none" xml:space="preserve">Request</text>
      <text x="1288.4707" font-size="20px" y="463.3564" clip-path="url(#clipPath2)" font-family="sans-serif" stroke="none" xml:space="preserve">Response</text>
    </g>
    <g text-rendering="geometricPrecision" stroke-miterlimit="1.45" shape-rendering="geometricPrecision" transform="matrix(1,0,0,1,-629,-264)" stroke-linecap="butt">
      <path fill="none" d="M828 455.25 L830.85 460 L737 460 L737 463 L830.85 463 L828 467.75 L843 461.5 L828 455.25 Z" clip-path="url(#clipPath2)"/>
    </g>
    <g text-rendering="geometricPrecision" stroke-miterlimit="1.45" shape-rendering="geometricPrecision" transform="matrix(1,0,0,1,-629,-264)" stroke-linecap="butt">
      <path fill="none" d="M1271.8811 450.4492 L1274.8231 455.1428 L1274.8231 455.1428 L1207.9362 456.4457 L1207.9945 459.4452 L1274.8815 458.1422 L1274.8815 458.1422 L1272.1246 462.9468 L1287 456.4059 L1271.8811 450.4492 Z" clip-path="url(#clipPath2)"/>
    </g>
  </g>
</svg>
